<svg xmlns="http://www.w3.org/2000/svg" xmlns:svg="http://www.w3.org/2000/svg" id="svg2" width="200" height="200" version="1.1" viewBox="0 0 200 200"><metadata id="metadata7"/><g id="layer1" transform="translate(-241.5312,-163.5)"><path id="rect4424" fill="#3c3c3c" fill-opacity="1" stroke="none" d="m 277.5312,179 c -11.357,0 -20.5,9.143 -20.5,20.5 l 0,128 c 0,11.357 9.143,20.5 20.5,20.5 l 11.125,0 0,-121.8125 c -1e-5,-3.37323 0.0721,-5.88656 0.21875,-7.5 0.29332,-1.61323 0.97332,-3.44656 2,-5.5 2.05332,-3.95989 6.9454,-5.93738 14.71875,-5.9375 7.7733,1.2e-4 12.98496,1.04053 15.625,3.09375 2.78662,1.90678 4.4037,4.74927 4.84375,8.5625 5.57328,-7.62656 14.30744,-11.43738 26.1875,-11.4375 12.02658,1.2e-4 23.38699,5.64428 34.09375,16.9375 10.70655,11.29342 16.06238,24.44632 16.0625,39.40625 -1.2e-4,14.96004 -5.35595,28.0817 -16.0625,39.375 -10.5601,11.29334 -21.84842,16.9375 -33.875,16.9375 -12.02673,0 -20.76089,-3.37833 -26.1875,-10.125 l 0,38 79.25,0 c 11.357,0 20.5,-9.143 20.5,-20.5 l 0,-128 c 0,-11.357 -9.143,-20.5 -20.5,-20.5 l -128,0 z m 68.125,66.09375 c -5.57339,8e-5 -10.06422,1.97758 -13.4375,5.9375 -3.37338,3.96007 -5.06255,8.30673 -5.0625,13 -5e-5,4.69339 1.68912,9.0088 5.0625,12.96875 3.51994,3.81338 7.90744,5.71879 13.1875,5.71875 5.4266,4e-5 9.98951,-1.90537 13.65625,-5.71875 3.81325,-3.81328 5.71867,-8.1287 5.71875,-12.96875 -8e-5,-4.83994 -1.76133,-9.1866 -5.28125,-13 -3.52008,-3.95992 -8.12382,-5.93742 -13.84375,-5.9375 z"/></g></svg>